<svg data-v-fde0c5aa="" xmlns="http://www.w3.org/2000/svg" viewBox="0 0 300 300" class="iconAbove"><!----><defs data-v-fde0c5aa=""><!----></defs><rect data-v-fde0c5aa="" fill="#F8680C" x="0" y="0" width="300px" height="300px" class="logo-background-square"></rect><defs data-v-fde0c5aa=""><!----></defs><g data-v-fde0c5aa="" id="139bedd3-1f6a-4e46-9e8f-7cc91b8b01ce" fill="#E7E7E6" transform="matrix(5.5100921937108485,0,0,5.5100921937108485,23.57093038516369,171.61811485452955)"><path d="M1.96 13.50L1.96 3.82L1.12 3.82L1.12 13.50ZM3.42 15.90C3.61 15.97 4.03 16.04 4.34 16.04C5.10 16.04 5.73 15.85 6.22 15.05C6.59 14.45 6.89 13.68 7.10 13.17L9.81 6.51L8.89 6.51C7.14 10.88 6.86 11.59 6.59 12.32C6.34 11.68 6.10 11.09 4.12 6.51L3.15 6.51L6.12 13.27L5.95 13.65C5.75 14.11 5.49 14.62 5.32 14.83C5.12 15.09 4.82 15.26 4.37 15.26C4.16 15.26 3.81 15.20 3.58 15.12ZM16.90 11.17L16.06 11.02C15.92 12.03 15.06 12.87 13.76 12.87C12.61 12.87 11.17 12.15 11.17 9.94C11.17 8.05 12.38 7.13 13.75 7.13C15.34 7.13 15.88 8.22 16.00 9.06L16.86 8.90C16.69 7.39 15.58 6.33 13.76 6.33C11.83 6.33 10.29 7.67 10.29 9.97C10.29 12.29 11.69 13.66 13.71 13.66C15.51 13.66 16.66 12.60 16.90 11.17ZM24.49 11.38L23.66 11.20C23.41 12.15 22.57 12.88 21.31 12.88C20.27 12.88 18.79 12.32 18.77 10.19L24.51 10.19C24.51 7.62 23.30 6.33 21.24 6.33C19.38 6.33 17.88 7.71 17.88 9.97C17.88 12.19 19.11 13.66 21.28 13.66C22.99 13.66 24.15 12.71 24.49 11.38ZM18.77 9.51C18.91 7.91 19.98 7.11 21.22 7.11C22.89 7.11 23.52 8.19 23.62 9.51ZM31.96 13.50L31.96 6.51L31.12 6.51L31.12 10.23C31.12 10.89 31.02 11.41 30.74 11.86C30.46 12.31 29.81 12.85 28.87 12.85C28.14 12.85 27.69 12.63 27.40 12.32C27.12 12.01 26.94 11.47 26.94 10.54L26.94 6.51L26.07 6.51L26.07 10.65C26.07 11.69 26.25 12.36 26.56 12.78C26.95 13.33 27.64 13.66 28.57 13.66C29.83 13.66 30.77 13.02 31.12 12.14L31.12 13.50ZM35.06 13.50L35.06 9.83C35.06 9.17 35.14 8.60 35.42 8.15C35.70 7.67 36.40 7.14 37.27 7.14C38.00 7.14 38.32 7.34 38.61 7.64C38.89 7.92 39.07 8.53 39.07 9.46L39.07 13.50L39.93 13.50L39.93 9.74C39.93 9.06 40.05 8.55 40.32 8.11C40.60 7.64 41.26 7.14 42.10 7.14C42.81 7.14 43.19 7.35 43.47 7.67C43.75 7.98 43.92 8.58 43.92 9.51L43.92 13.50L44.77 13.50L44.77 9.37C44.77 8.32 44.60 7.62 44.31 7.21C43.90 6.65 43.27 6.34 42.34 6.34C40.99 6.34 40.08 7.13 39.79 8.02C39.52 6.87 38.75 6.34 37.55 6.34C36.34 6.34 35.32 7.04 35.06 7.91L35.06 6.51L34.22 6.51L34.22 13.50Z"></path></g><defs data-v-fde0c5aa=""><!----></defs><g data-v-fde0c5aa="" id="8af72111-6f5c-41ab-8e33-60374eb2dc10" stroke="none" fill="#E7E7E6" transform="matrix(2.021384350328119,0,0,2.021384350328119,48.93078248359406,6.891765589432801)"><path d="M4.635 41.6l-3.12 31.156-1.181 4.195 2.689-29.307zM95.364 41.6l3.121 31.156 1.181 4.195-2.688-29.307zM5.771 39.521l.013-.123c-.001 0-.092.052-.013.123zM97.504 73.729s.002.803-8.865.803c-10.384 0-13.146-5.213-26.337-5.213-7.62 0-10.962 6.502-12.302 10.539-1.34-4.037-4.681-10.539-12.302-10.539-13.19 0-15.954 5.213-26.336 5.213-8.869 0-8.867-.803-8.867-.803L0 83h100l-2.496-9.271z"></path><path d="M94.217 39.398s-.494.137-1.615.28l.714 14.399s-8.124 6.782-28.73 10.482C51 67 50 76.57 50 76.57c.735-1.639 4.011-9.393 12.302-9.393 12.832 0 16.241 5.215 26.337 5.215 7.618 0 8.865-.838 8.865-.838l-3.287-32.156z"></path><path d="M89.523 16.379s-3.16 8.02-25.62 15.372c-6.56 2.147-9.938 5.35-11.681 8.027-1.077 1.472-1.677 3.008-1.769 4.266a6.317 6.317 0 0 0-.052.341h-.021L50 63.703l-.38-19.318h-.04c0-3.363-4.199-9.604-11.882-9.604-13.19 0-13.815 5.214-24.197 5.214-6.297 0-7.537-.3-7.73-.474L2.496 71.555s1.247.838 8.867.838c10.094 0 13.504-5.215 26.336-5.215 8.291 0 11.633 7.754 12.302 9.393 0 0 1.106-9.736 14.585-13.078 20.32-5.041 26.592-11.554 26.592-11.554l-1.655-35.56z"></path></g><!----></svg>