<svg data-v-fde0c5aa="" xmlns="http://www.w3.org/2000/svg" viewBox="0 0 300 300" class="font"><!----><defs data-v-fde0c5aa=""><!----></defs><rect data-v-fde0c5aa="" fill="#F8680C" x="0" y="0" width="300px" height="300px" class="logo-background-square"></rect><defs data-v-fde0c5aa=""><!----></defs><g data-v-fde0c5aa="" id="826ea22e-3794-45d7-b876-b59d07ab252f" fill="#E7E7E6" transform="matrix(5.040091461842629,0,0,5.040091461842629,34.35509753870321,99.9518890441374)"><path d="M1.96 13.50L1.96 3.82L1.12 3.82L1.12 13.50ZM3.42 15.90C3.61 15.97 4.03 16.04 4.34 16.04C5.10 16.04 5.73 15.85 6.22 15.05C6.59 14.45 6.89 13.68 7.10 13.17L9.81 6.51L8.89 6.51C7.14 10.88 6.86 11.59 6.59 12.32C6.34 11.68 6.10 11.09 4.12 6.51L3.15 6.51L6.12 13.27L5.95 13.65C5.75 14.11 5.49 14.62 5.32 14.83C5.12 15.09 4.82 15.26 4.37 15.26C4.16 15.26 3.81 15.20 3.58 15.12ZM16.90 11.17L16.06 11.02C15.92 12.03 15.06 12.87 13.76 12.87C12.61 12.87 11.17 12.15 11.17 9.94C11.17 8.05 12.38 7.13 13.75 7.13C15.34 7.13 15.88 8.22 16.00 9.06L16.86 8.90C16.69 7.39 15.58 6.33 13.76 6.33C11.83 6.33 10.29 7.67 10.29 9.97C10.29 12.29 11.69 13.66 13.71 13.66C15.51 13.66 16.66 12.60 16.90 11.17ZM24.49 11.38L23.66 11.20C23.41 12.15 22.57 12.88 21.31 12.88C20.27 12.88 18.79 12.32 18.77 10.19L24.51 10.19C24.51 7.62 23.30 6.33 21.24 6.33C19.38 6.33 17.88 7.71 17.88 9.97C17.88 12.19 19.11 13.66 21.28 13.66C22.99 13.66 24.15 12.71 24.49 11.38ZM18.77 9.51C18.91 7.91 19.98 7.11 21.22 7.11C22.89 7.11 23.52 8.19 23.62 9.51ZM31.96 13.50L31.96 6.51L31.12 6.51L31.12 10.23C31.12 10.89 31.02 11.41 30.74 11.86C30.46 12.31 29.81 12.85 28.87 12.85C28.14 12.85 27.69 12.63 27.40 12.32C27.12 12.01 26.94 11.47 26.94 10.54L26.94 6.51L26.07 6.51L26.07 10.65C26.07 11.69 26.25 12.36 26.56 12.78C26.95 13.33 27.64 13.66 28.57 13.66C29.83 13.66 30.77 13.02 31.12 12.14L31.12 13.50ZM35.06 13.50L35.06 9.83C35.06 9.17 35.14 8.60 35.42 8.15C35.70 7.67 36.40 7.14 37.27 7.14C38.00 7.14 38.32 7.34 38.61 7.64C38.89 7.92 39.07 8.53 39.07 9.46L39.07 13.50L39.93 13.50L39.93 9.74C39.93 9.06 40.05 8.55 40.32 8.11C40.60 7.64 41.26 7.14 42.10 7.14C42.81 7.14 43.19 7.35 43.47 7.67C43.75 7.98 43.92 8.58 43.92 9.51L43.92 13.50L44.77 13.50L44.77 9.37C44.77 8.32 44.60 7.62 44.31 7.21C43.90 6.65 43.27 6.34 42.34 6.34C40.99 6.34 40.08 7.13 39.79 8.02C39.52 6.87 38.75 6.34 37.55 6.34C36.34 6.34 35.32 7.04 35.06 7.91L35.06 6.51L34.22 6.51L34.22 13.50Z"></path></g><!----><!----></svg>