<svg xmlns="http://www.w3.org/2000/svg" version="1.1" xmlns:xlink="http://www.w3.org/1999/xlink" xmlns:svgjs="http://svgjs.com/svgjs" width="860" height="240" preserveAspectRatio="none" viewBox="0 0 860 240"><g mask="url(&quot;#SvgjsMask1779&quot;)" fill="none"><rect width="860" height="240" x="0" y="0" fill="url(#SvgjsLinearGradient1780)"></rect><path d="M-54.85 148.68L-54.85 148.68" stroke="rgba(169, 186, 221, 1)" stroke-width="1.5"></path><path d="M-54.85 148.68L32.65 186.48" stroke="rgba(169, 186, 221, 1)" stroke-width="1.5"></path><path d="M-54.85 148.68L31.65 286.67" stroke="rgba(169, 186, 221, 1)" stroke-width="1.5"></path><path d="M-53.56 386.1L-53.56 386.1" stroke="rgba(169, 186, 221, 1)" stroke-width="1.5"></path><path d="M-53.56 386.1L52.41 393.55" stroke="rgba(169, 186, 221, 1)" stroke-width="1.5"></path><path d="M-53.56 386.1L31.65 286.67" stroke="rgba(169, 186, 221, 1)" stroke-width="1.5"></path><path d="M-53.56 386.1L150.05 392.6" stroke="rgba(169, 186, 221, 1)" stroke-width="1.5"></path><path d="M-53.56 386.1L32.65 186.48" stroke="rgba(169, 186, 221, 1)" stroke-width="1.5"></path><path d="M32.65 186.48L32.65 186.48" stroke="rgba(169, 186, 221, 1)" stroke-width="1.5"></path><path d="M32.65 186.48L31.65 286.67" stroke="rgba(169, 186, 221, 1)" stroke-width="1.5"></path><path d="M32.65 186.48L164.42 164.86" stroke="rgba(169, 186, 221, 1)" stroke-width="1.5"></path><path d="M32.65 186.48L144.47 287.65" stroke="rgba(169, 186, 221, 1)" stroke-width="1.5"></path><path d="M31.65 286.67L31.65 286.67" stroke="rgba(169, 186, 221, 1)" stroke-width="1.5"></path><path d="M31.65 286.67L52.41 393.55" stroke="rgba(169, 186, 221, 1)" stroke-width="1.5"></path><path d="M31.65 286.67L144.47 287.65" stroke="rgba(169, 186, 221, 1)" stroke-width="1.5"></path><path d="M52.41 393.55L52.41 393.55" stroke="rgba(169, 186, 221, 1)" stroke-width="1.5"></path><path d="M52.41 393.55L150.05 392.6" stroke="rgba(169, 186, 221, 1)" stroke-width="1.5"></path><path d="M52.41 393.55L144.47 287.65" stroke="rgba(169, 186, 221, 1)" stroke-width="1.5"></path><path d="M52.41 393.55L32.65 186.48" stroke="rgba(169, 186, 221, 1)" stroke-width="1.5"></path><path d="M52.41 393.55L164.42 164.86" stroke="rgba(169, 186, 221, 1)" stroke-width="1.5"></path><path d="M164.42 164.86L164.42 164.86" stroke="rgba(169, 186, 221, 1)" stroke-width="1.5"></path><path d="M164.42 164.86L273.43 150.41" stroke="rgba(169, 186, 221, 1)" stroke-width="1.5"></path><path d="M164.42 164.86L144.47 287.65" stroke="rgba(169, 186, 221, 1)" stroke-width="1.5"></path><path d="M164.42 164.86L275.97 242.59" stroke="rgba(169, 186, 221, 1)" stroke-width="1.5"></path><path d="M164.42 164.86L31.65 286.67" stroke="rgba(169, 186, 221, 1)" stroke-width="1.5"></path><path d="M164.42 164.86L-54.85 148.68" stroke="rgba(169, 186, 221, 1)" stroke-width="1.5"></path><path d="M144.47 287.65L144.47 287.65" stroke="rgba(169, 186, 221, 1)" stroke-width="1.5"></path><path d="M144.47 287.65L150.05 392.6" stroke="rgba(169, 186, 221, 1)" stroke-width="1.5"></path><path d="M150.05 392.6L150.05 392.6" stroke="rgba(169, 186, 221, 1)" stroke-width="1.5"></path><path d="M150.05 392.6L31.65 286.67" stroke="rgba(169, 186, 221, 1)" stroke-width="1.5"></path><path d="M150.05 392.6L275.97 242.59" stroke="rgba(169, 186, 221, 1)" stroke-width="1.5"></path><path d="M150.05 392.6L360.43 399.48" stroke="rgba(169, 186, 221, 1)" stroke-width="1.5"></path><path d="M273.43 150.41L273.43 150.41" stroke="rgba(169, 186, 221, 1)" stroke-width="1.5"></path><path d="M273.43 150.41L275.97 242.59" stroke="rgba(169, 186, 221, 1)" stroke-width="1.5"></path><path d="M273.43 150.41L400.79 153.89" stroke="rgba(169, 186, 221, 1)" stroke-width="1.5"></path><path d="M275.97 242.59L275.97 242.59" stroke="rgba(169, 186, 221, 1)" stroke-width="1.5"></path><path d="M275.97 242.59L368.2 286.24" stroke="rgba(169, 186, 221, 1)" stroke-width="1.5"></path><path d="M275.97 242.59L144.47 287.65" stroke="rgba(169, 186, 221, 1)" stroke-width="1.5"></path><path d="M275.97 242.59L400.79 153.89" stroke="rgba(169, 186, 221, 1)" stroke-width="1.5"></path><path d="M400.79 153.89L400.79 153.89" stroke="rgba(169, 186, 221, 1)" stroke-width="1.5"></path><path d="M400.79 153.89L488.23 156.93" stroke="rgba(169, 186, 221, 1)" stroke-width="1.5"></path><path d="M400.79 153.89L368.2 286.24" stroke="rgba(169, 186, 221, 1)" stroke-width="1.5"></path><path d="M368.2 286.24L368.2 286.24" stroke="rgba(169, 186, 221, 1)" stroke-width="1.5"></path><path d="M368.2 286.24L360.43 399.48" stroke="rgba(169, 186, 221, 1)" stroke-width="1.5"></path><path d="M368.2 286.24L491.97 265.03" stroke="rgba(169, 186, 221, 1)" stroke-width="1.5"></path><path d="M368.2 286.24L489.49 377.95" stroke="rgba(169, 186, 221, 1)" stroke-width="1.5"></path><path d="M368.2 286.24L273.43 150.41" stroke="rgba(169, 186, 221, 1)" stroke-width="1.5"></path><path d="M360.43 399.48L360.43 399.48" stroke="rgba(169, 186, 221, 1)" stroke-width="1.5"></path><path d="M488.23 156.93L488.23 156.93" stroke="rgba(169, 186, 221, 1)" stroke-width="1.5"></path><path d="M488.23 156.93L574.22 178.72" stroke="rgba(169, 186, 221, 1)" stroke-width="1.5"></path><path d="M491.97 265.03L491.97 265.03" stroke="rgba(169, 186, 221, 1)" stroke-width="1.5"></path><path d="M491.97 265.03L579.36 253.28" stroke="rgba(169, 186, 221, 1)" stroke-width="1.5"></path><path d="M491.97 265.03L488.23 156.93" stroke="rgba(169, 186, 221, 1)" stroke-width="1.5"></path><path d="M491.97 265.03L489.49 377.95" stroke="rgba(169, 186, 221, 1)" stroke-width="1.5"></path><path d="M491.97 265.03L574.22 178.72" stroke="rgba(169, 186, 221, 1)" stroke-width="1.5"></path><path d="M491.97 265.03L400.79 153.89" stroke="rgba(169, 186, 221, 1)" stroke-width="1.5"></path><path d="M489.49 377.95L489.49 377.95" stroke="rgba(169, 186, 221, 1)" stroke-width="1.5"></path><path d="M489.49 377.95L609.52 370.28" stroke="rgba(169, 186, 221, 1)" stroke-width="1.5"></path><path d="M609.06 -65.81L609.06 -65.81" stroke="rgba(169, 186, 221, 1)" stroke-width="1.5"></path><path d="M609.06 -65.81L723.95 -38.76" stroke="rgba(169, 186, 221, 1)" stroke-width="1.5"></path><path d="M609.06 -65.81L682.68 42.67" stroke="rgba(169, 186, 221, 1)" stroke-width="1.5"></path><path d="M609.06 -65.81L601.66 75.06" stroke="rgba(169, 186, 221, 1)" stroke-width="1.5"></path><path d="M609.06 -65.81L802.69 30.57" stroke="rgba(169, 186, 221, 1)" stroke-width="1.5"></path><path d="M601.66 75.06L601.66 75.06" stroke="rgba(169, 186, 221, 1)" stroke-width="1.5"></path><path d="M601.66 75.06L682.68 42.67" stroke="rgba(169, 186, 221, 1)" stroke-width="1.5"></path><path d="M601.66 75.06L574.22 178.72" stroke="rgba(169, 186, 221, 1)" stroke-width="1.5"></path><path d="M601.66 75.06L674.01 172.98" stroke="rgba(169, 186, 221, 1)" stroke-width="1.5"></path><path d="M601.66 75.06L488.23 156.93" stroke="rgba(169, 186, 221, 1)" stroke-width="1.5"></path><path d="M574.22 178.72L574.22 178.72" stroke="rgba(169, 186, 221, 1)" stroke-width="1.5"></path><path d="M574.22 178.72L579.36 253.28" stroke="rgba(169, 186, 221, 1)" stroke-width="1.5"></path><path d="M574.22 178.72L674.01 172.98" stroke="rgba(169, 186, 221, 1)" stroke-width="1.5"></path><path d="M579.36 253.28L579.36 253.28" stroke="rgba(169, 186, 221, 1)" stroke-width="1.5"></path><path d="M579.36 253.28L609.52 370.28" stroke="rgba(169, 186, 221, 1)" stroke-width="1.5"></path><path d="M579.36 253.28L674.01 172.98" stroke="rgba(169, 186, 221, 1)" stroke-width="1.5"></path><path d="M579.36 253.28L488.23 156.93" stroke="rgba(169, 186, 221, 1)" stroke-width="1.5"></path><path d="M609.52 370.28L609.52 370.28" stroke="rgba(169, 186, 221, 1)" stroke-width="1.5"></path><path d="M609.52 370.28L694.79 373.71" stroke="rgba(169, 186, 221, 1)" stroke-width="1.5"></path><path d="M723.95 -38.76L723.95 -38.76" stroke="rgba(169, 186, 221, 1)" stroke-width="1.5"></path><path d="M723.95 -38.76L682.68 42.67" stroke="rgba(169, 186, 221, 1)" stroke-width="1.5"></path><path d="M723.95 -38.76L802.69 30.57" stroke="rgba(169, 186, 221, 1)" stroke-width="1.5"></path><path d="M682.68 42.67L682.68 42.67" stroke="rgba(169, 186, 221, 1)" stroke-width="1.5"></path><path d="M682.68 42.67L802.69 30.57" stroke="rgba(169, 186, 221, 1)" stroke-width="1.5"></path><path d="M674.01 172.98L674.01 172.98" stroke="rgba(169, 186, 221, 1)" stroke-width="1.5"></path><path d="M674.01 172.98L713.44 259.8" stroke="rgba(169, 186, 221, 1)" stroke-width="1.5"></path><path d="M713.44 259.8L713.44 259.8" stroke="rgba(169, 186, 221, 1)" stroke-width="1.5"></path><path d="M713.44 259.8L810.73 279.56" stroke="rgba(169, 186, 221, 1)" stroke-width="1.5"></path><path d="M713.44 259.8L694.79 373.71" stroke="rgba(169, 186, 221, 1)" stroke-width="1.5"></path><path d="M694.79 373.71L694.79 373.71" stroke="rgba(169, 186, 221, 1)" stroke-width="1.5"></path><path d="M694.79 373.71L818.32 398.92" stroke="rgba(169, 186, 221, 1)" stroke-width="1.5"></path><path d="M694.79 373.71L810.73 279.56" stroke="rgba(169, 186, 221, 1)" stroke-width="1.5"></path><path d="M831.59 -75.58L831.59 -75.58" stroke="rgba(169, 186, 221, 1)" stroke-width="1.5"></path><path d="M831.59 -75.58L891.62 -64.59" stroke="rgba(169, 186, 221, 1)" stroke-width="1.5"></path><path d="M831.59 -75.58L802.69 30.57" stroke="rgba(169, 186, 221, 1)" stroke-width="1.5"></path><path d="M831.59 -75.58L723.95 -38.76" stroke="rgba(169, 186, 221, 1)" stroke-width="1.5"></path><path d="M831.59 -75.58L911.18 71.26" stroke="rgba(169, 186, 221, 1)" stroke-width="1.5"></path><path d="M802.69 30.57L802.69 30.57" stroke="rgba(169, 186, 221, 1)" stroke-width="1.5"></path><path d="M801.49 167.8L801.49 167.8" stroke="rgba(169, 186, 221, 1)" stroke-width="1.5"></path><path d="M801.49 167.8L905.39 142.67" stroke="rgba(169, 186, 221, 1)" stroke-width="1.5"></path><path d="M801.49 167.8L810.73 279.56" stroke="rgba(169, 186, 221, 1)" stroke-width="1.5"></path><path d="M801.49 167.8L713.44 259.8" stroke="rgba(169, 186, 221, 1)" stroke-width="1.5"></path><path d="M801.49 167.8L674.01 172.98" stroke="rgba(169, 186, 221, 1)" stroke-width="1.5"></path><path d="M801.49 167.8L802.69 30.57" stroke="rgba(169, 186, 221, 1)" stroke-width="1.5"></path><path d="M810.73 279.56L810.73 279.56" stroke="rgba(169, 186, 221, 1)" stroke-width="1.5"></path><path d="M810.73 279.56L892.88 286.92" stroke="rgba(169, 186, 221, 1)" stroke-width="1.5"></path><path d="M810.73 279.56L818.32 398.92" stroke="rgba(169, 186, 221, 1)" stroke-width="1.5"></path><path d="M810.73 279.56L892.89 392.38" stroke="rgba(169, 186, 221, 1)" stroke-width="1.5"></path><path d="M818.32 398.92L818.32 398.92" stroke="rgba(169, 186, 221, 1)" stroke-width="1.5"></path><path d="M818.32 398.92L892.89 392.38" stroke="rgba(169, 186, 221, 1)" stroke-width="1.5"></path><path d="M818.32 398.92L892.88 286.92" stroke="rgba(169, 186, 221, 1)" stroke-width="1.5"></path><path d="M818.32 398.92L713.44 259.8" stroke="rgba(169, 186, 221, 1)" stroke-width="1.5"></path><path d="M891.62 -64.59L891.62 -64.59" stroke="rgba(169, 186, 221, 1)" stroke-width="1.5"></path><path d="M891.62 -64.59L802.69 30.57" stroke="rgba(169, 186, 221, 1)" stroke-width="1.5"></path><path d="M891.62 -64.59L911.18 71.26" stroke="rgba(169, 186, 221, 1)" stroke-width="1.5"></path><path d="M891.62 -64.59L723.95 -38.76" stroke="rgba(169, 186, 221, 1)" stroke-width="1.5"></path><path d="M891.62 -64.59L905.39 142.67" stroke="rgba(169, 186, 221, 1)" stroke-width="1.5"></path><path d="M891.62 -64.59L682.68 42.67" stroke="rgba(169, 186, 221, 1)" stroke-width="1.5"></path><path d="M911.18 71.26L911.18 71.26" stroke="rgba(169, 186, 221, 1)" stroke-width="1.5"></path><path d="M911.18 71.26L905.39 142.67" stroke="rgba(169, 186, 221, 1)" stroke-width="1.5"></path><path d="M911.18 71.26L802.69 30.57" stroke="rgba(169, 186, 221, 1)" stroke-width="1.5"></path><path d="M905.39 142.67L905.39 142.67" stroke="rgba(169, 186, 221, 1)" stroke-width="1.5"></path><path d="M905.39 142.67L892.88 286.92" stroke="rgba(169, 186, 221, 1)" stroke-width="1.5"></path><path d="M905.39 142.67L802.69 30.57" stroke="rgba(169, 186, 221, 1)" stroke-width="1.5"></path><path d="M905.39 142.67L810.73 279.56" stroke="rgba(169, 186, 221, 1)" stroke-width="1.5"></path><path d="M892.88 286.92L892.88 286.92" stroke="rgba(169, 186, 221, 1)" stroke-width="1.5"></path><path d="M892.88 286.92L892.89 392.38" stroke="rgba(169, 186, 221, 1)" stroke-width="1.5"></path><path d="M892.89 392.38L892.89 392.38" stroke="rgba(169, 186, 221, 1)" stroke-width="1.5"></path><circle r="5" cx="-54.85" cy="148.68" fill="rgba(169, 186, 221, 1)"></circle><circle r="5" cx="-53.56" cy="386.1" fill="rgba(169, 186, 221, 1)"></circle><circle r="5" cx="32.65" cy="186.48" fill="rgba(169, 186, 221, 1)"></circle><circle r="5" cx="31.65" cy="286.67" fill="rgba(169, 186, 221, 1)"></circle><circle r="5" cx="52.41" cy="393.55" fill="rgba(169, 186, 221, 1)"></circle><circle r="5" cx="164.42" cy="164.86" fill="rgba(169, 186, 221, 1)"></circle><circle r="5" cx="144.47" cy="287.65" fill="rgba(169, 186, 221, 1)"></circle><circle r="5" cx="150.05" cy="392.6" fill="rgba(169, 186, 221, 1)"></circle><circle r="5" cx="273.43" cy="150.41" fill="rgba(169, 186, 221, 1)"></circle><circle r="5" cx="275.97" cy="242.59" fill="rgba(169, 186, 221, 1)"></circle><circle r="5" cx="400.79" cy="153.89" fill="rgba(169, 186, 221, 1)"></circle><circle r="5" cx="368.2" cy="286.24" fill="rgba(169, 186, 221, 1)"></circle><circle r="5" cx="360.43" cy="399.48" fill="rgba(169, 186, 221, 1)"></circle><circle r="5" cx="488.23" cy="156.93" fill="rgba(169, 186, 221, 1)"></circle><circle r="5" cx="491.97" cy="265.03" fill="rgba(169, 186, 221, 1)"></circle><circle r="5" cx="489.49" cy="377.95" fill="rgba(169, 186, 221, 1)"></circle><circle r="5" cx="609.06" cy="-65.81" fill="rgba(169, 186, 221, 1)"></circle><circle r="5" cx="601.66" cy="75.06" fill="rgba(169, 186, 221, 1)"></circle><circle r="5" cx="574.22" cy="178.72" fill="rgba(169, 186, 221, 1)"></circle><circle r="5" cx="579.36" cy="253.28" fill="rgba(169, 186, 221, 1)"></circle><circle r="5" cx="609.52" cy="370.28" fill="rgba(169, 186, 221, 1)"></circle><circle r="5" cx="723.95" cy="-38.76" fill="rgba(169, 186, 221, 1)"></circle><circle r="5" cx="682.68" cy="42.67" fill="rgba(169, 186, 221, 1)"></circle><circle r="5" cx="674.01" cy="172.98" fill="rgba(169, 186, 221, 1)"></circle><circle r="5" cx="713.44" cy="259.8" fill="rgba(169, 186, 221, 1)"></circle><circle r="5" cx="694.79" cy="373.71" fill="rgba(169, 186, 221, 1)"></circle><circle r="5" cx="831.59" cy="-75.58" fill="rgba(169, 186, 221, 1)"></circle><circle r="5" cx="802.69" cy="30.57" fill="rgba(169, 186, 221, 1)"></circle><circle r="5" cx="801.49" cy="167.8" fill="rgba(169, 186, 221, 1)"></circle><circle r="5" cx="810.73" cy="279.56" fill="rgba(169, 186, 221, 1)"></circle><circle r="5" cx="818.32" cy="398.92" fill="rgba(169, 186, 221, 1)"></circle><circle r="5" cx="891.62" cy="-64.59" fill="rgba(169, 186, 221, 1)"></circle><circle r="5" cx="911.18" cy="71.26" fill="rgba(169, 186, 221, 1)"></circle><circle r="5" cx="905.39" cy="142.67" fill="rgba(169, 186, 221, 1)"></circle><circle r="5" cx="892.88" cy="286.92" fill="rgba(169, 186, 221, 1)"></circle><circle r="5" cx="892.89" cy="392.38" fill="rgba(169, 186, 221, 1)"></circle><path d="M259.23 183.73L259.23 183.73" stroke="hsl(228.89999999999998, 24.7%, 90.7%)" stroke-width="1.5"></path><path d="M259.23 183.73L273.74 248.4" stroke="hsl(228.89999999999998, 24.7%, 90.7%)" stroke-width="1.5"></path><path d="M259.23 183.73L368.9 264.36" stroke="hsl(228.89999999999998, 24.7%, 90.7%)" stroke-width="1.5"></path><path d="M259.23 183.73L152.88 271.71" stroke="hsl(228.89999999999998, 24.7%, 90.7%)" stroke-width="1.5"></path><path d="M273.74 248.4L273.74 248.4" stroke="hsl(228.89999999999998, 24.7%, 90.7%)" stroke-width="1.5"></path><path d="M273.74 248.4L368.9 264.36" stroke="hsl(228.89999999999998, 24.7%, 90.7%)" stroke-width="1.5"></path><path d="M273.74 248.4L152.88 271.71" stroke="hsl(228.89999999999998, 24.7%, 90.7%)" stroke-width="1.5"></path><path d="M273.74 248.4L294.74 381.74" stroke="hsl(228.89999999999998, 24.7%, 90.7%)" stroke-width="1.5"></path><path d="M273.74 248.4L396.79 159.16" stroke="hsl(228.89999999999998, 24.7%, 90.7%)" stroke-width="1.5"></path><path d="M273.74 248.4L380.31 400.61" stroke="hsl(228.89999999999998, 24.7%, 90.7%)" stroke-width="1.5"></path><path d="M396.79 159.16L396.79 159.16" stroke="hsl(228.89999999999998, 24.7%, 90.7%)" stroke-width="1.5"></path><path d="M396.79 159.16L368.9 264.36" stroke="hsl(228.89999999999998, 24.7%, 90.7%)" stroke-width="1.5"></path><path d="M396.79 159.16L259.23 183.73" stroke="hsl(228.89999999999998, 24.7%, 90.7%)" stroke-width="1.5"></path><path d="M396.79 159.16L494.99 287.24" stroke="hsl(228.89999999999998, 24.7%, 90.7%)" stroke-width="1.5"></path><path d="M396.79 159.16L583.79 248.71" stroke="hsl(228.89999999999998, 24.7%, 90.7%)" stroke-width="1.5"></path><path d="M368.9 264.36L368.9 264.36" stroke="hsl(228.89999999999998, 24.7%, 90.7%)" stroke-width="1.5"></path><path d="M368.9 264.36L494.99 287.24" stroke="hsl(228.89999999999998, 24.7%, 90.7%)" stroke-width="1.5"></path><path d="M494.99 287.24L494.99 287.24" stroke="hsl(228.89999999999998, 24.7%, 90.7%)" stroke-width="1.5"></path><path d="M494.99 287.24L583.79 248.71" stroke="hsl(228.89999999999998, 24.7%, 90.7%)" stroke-width="1.5"></path><path d="M494.99 287.24L478.5 387.6" stroke="hsl(228.89999999999998, 24.7%, 90.7%)" stroke-width="1.5"></path><path d="M494.99 287.24L601.87 366.67" stroke="hsl(228.89999999999998, 24.7%, 90.7%)" stroke-width="1.5"></path><path d="M494.99 287.24L380.31 400.61" stroke="hsl(228.89999999999998, 24.7%, 90.7%)" stroke-width="1.5"></path><path d="M583.79 248.71L583.79 248.71" stroke="hsl(228.89999999999998, 24.7%, 90.7%)" stroke-width="1.5"></path><path d="M583.79 248.71L691.25 282.79" stroke="hsl(228.89999999999998, 24.7%, 90.7%)" stroke-width="1.5"></path><path d="M583.79 248.71L601.87 366.67" stroke="hsl(228.89999999999998, 24.7%, 90.7%)" stroke-width="1.5"></path><path d="M583.79 248.71L478.5 387.6" stroke="hsl(228.89999999999998, 24.7%, 90.7%)" stroke-width="1.5"></path><path d="M583.79 248.71L710.69 390.08" stroke="hsl(228.89999999999998, 24.7%, 90.7%)" stroke-width="1.5"></path><path d="M702.81 67.44L702.81 67.44" stroke="hsl(228.89999999999998, 24.7%, 90.7%)" stroke-width="1.5"></path><path d="M702.81 67.44L703.07 -27.78" stroke="hsl(228.89999999999998, 24.7%, 90.7%)" stroke-width="1.5"></path><path d="M710.69 390.08L710.69 390.08" stroke="hsl(228.89999999999998, 24.7%, 90.7%)" stroke-width="1.5"></path><path d="M710.69 390.08L786.59 360.36" stroke="hsl(228.89999999999998, 24.7%, 90.7%)" stroke-width="1.5"></path><path d="M710.69 390.08L691.25 282.79" stroke="hsl(228.89999999999998, 24.7%, 90.7%)" stroke-width="1.5"></path><path d="M710.69 390.08L601.87 366.67" stroke="hsl(228.89999999999998, 24.7%, 90.7%)" stroke-width="1.5"></path><path d="M710.69 390.08L810.72 288.33" stroke="hsl(228.89999999999998, 24.7%, 90.7%)" stroke-width="1.5"></path><path d="M786.59 360.36L786.59 360.36" stroke="hsl(228.89999999999998, 24.7%, 90.7%)" stroke-width="1.5"></path><path d="M786.59 360.36L810.72 288.33" stroke="hsl(228.89999999999998, 24.7%, 90.7%)" stroke-width="1.5"></path><path d="M786.59 360.36L691.25 282.79" stroke="hsl(228.89999999999998, 24.7%, 90.7%)" stroke-width="1.5"></path><path d="M786.59 360.36L938.77 398.18" stroke="hsl(228.89999999999998, 24.7%, 90.7%)" stroke-width="1.5"></path><path d="M786.59 360.36L933.98 288.9" stroke="hsl(228.89999999999998, 24.7%, 90.7%)" stroke-width="1.5"></path><path d="M786.59 360.36L601.87 366.67" stroke="hsl(228.89999999999998, 24.7%, 90.7%)" stroke-width="1.5"></path><path d="M-75.7 293.28L-75.7 293.28" stroke="hsl(228.89999999999998, 24.7%, 90.7%)" stroke-width="1.5"></path><path d="M-75.7 293.28L40.22 253.41" stroke="hsl(228.89999999999998, 24.7%, 90.7%)" stroke-width="1.5"></path><path d="M-75.7 293.28L37.26 357.03" stroke="hsl(228.89999999999998, 24.7%, 90.7%)" stroke-width="1.5"></path><path d="M40.22 253.41L40.22 253.41" stroke="hsl(228.89999999999998, 24.7%, 90.7%)" stroke-width="1.5"></path><path d="M40.22 253.41L37.26 357.03" stroke="hsl(228.89999999999998, 24.7%, 90.7%)" stroke-width="1.5"></path><path d="M40.22 253.41L152.88 271.71" stroke="hsl(228.89999999999998, 24.7%, 90.7%)" stroke-width="1.5"></path><path d="M37.26 357.03L37.26 357.03" stroke="hsl(228.89999999999998, 24.7%, 90.7%)" stroke-width="1.5"></path><path d="M37.26 357.03L152.88 271.71" stroke="hsl(228.89999999999998, 24.7%, 90.7%)" stroke-width="1.5"></path><path d="M37.26 357.03L294.74 381.74" stroke="hsl(228.89999999999998, 24.7%, 90.7%)" stroke-width="1.5"></path><path d="M152.88 271.71L152.88 271.71" stroke="hsl(228.89999999999998, 24.7%, 90.7%)" stroke-width="1.5"></path><path d="M152.88 271.71L294.74 381.74" stroke="hsl(228.89999999999998, 24.7%, 90.7%)" stroke-width="1.5"></path><path d="M294.74 381.74L294.74 381.74" stroke="hsl(228.89999999999998, 24.7%, 90.7%)" stroke-width="1.5"></path><path d="M294.74 381.74L380.31 400.61" stroke="hsl(228.89999999999998, 24.7%, 90.7%)" stroke-width="1.5"></path><path d="M294.74 381.74L368.9 264.36" stroke="hsl(228.89999999999998, 24.7%, 90.7%)" stroke-width="1.5"></path><path d="M294.74 381.74L478.5 387.6" stroke="hsl(228.89999999999998, 24.7%, 90.7%)" stroke-width="1.5"></path><path d="M380.31 400.61L380.31 400.61" stroke="hsl(228.89999999999998, 24.7%, 90.7%)" stroke-width="1.5"></path><path d="M380.31 400.61L478.5 387.6" stroke="hsl(228.89999999999998, 24.7%, 90.7%)" stroke-width="1.5"></path><path d="M478.5 387.6L478.5 387.6" stroke="hsl(228.89999999999998, 24.7%, 90.7%)" stroke-width="1.5"></path><path d="M478.5 387.6L601.87 366.67" stroke="hsl(228.89999999999998, 24.7%, 90.7%)" stroke-width="1.5"></path><path d="M601.87 366.67L601.87 366.67" stroke="hsl(228.89999999999998, 24.7%, 90.7%)" stroke-width="1.5"></path><path d="M601.87 366.67L691.25 282.79" stroke="hsl(228.89999999999998, 24.7%, 90.7%)" stroke-width="1.5"></path><path d="M703.07 -27.78L703.07 -27.78" stroke="hsl(228.89999999999998, 24.7%, 90.7%)" stroke-width="1.5"></path><path d="M703.07 -27.78L801.8 -46.78" stroke="hsl(228.89999999999998, 24.7%, 90.7%)" stroke-width="1.5"></path><path d="M691.25 282.79L691.25 282.79" stroke="hsl(228.89999999999998, 24.7%, 90.7%)" stroke-width="1.5"></path><path d="M691.25 282.79L810.72 288.33" stroke="hsl(228.89999999999998, 24.7%, 90.7%)" stroke-width="1.5"></path><path d="M801.8 -46.78L801.8 -46.78" stroke="hsl(228.89999999999998, 24.7%, 90.7%)" stroke-width="1.5"></path><path d="M801.8 -46.78L792.53 27.08" stroke="hsl(228.89999999999998, 24.7%, 90.7%)" stroke-width="1.5"></path><path d="M801.8 -46.78L920.31 29.39" stroke="hsl(228.89999999999998, 24.7%, 90.7%)" stroke-width="1.5"></path><path d="M801.8 -46.78L702.81 67.44" stroke="hsl(228.89999999999998, 24.7%, 90.7%)" stroke-width="1.5"></path><path d="M801.8 -46.78L823.28 141.67" stroke="hsl(228.89999999999998, 24.7%, 90.7%)" stroke-width="1.5"></path><path d="M801.8 -46.78L931.86 142.97" stroke="hsl(228.89999999999998, 24.7%, 90.7%)" stroke-width="1.5"></path><path d="M792.53 27.08L792.53 27.08" stroke="hsl(228.89999999999998, 24.7%, 90.7%)" stroke-width="1.5"></path><path d="M792.53 27.08L702.81 67.44" stroke="hsl(228.89999999999998, 24.7%, 90.7%)" stroke-width="1.5"></path><path d="M792.53 27.08L703.07 -27.78" stroke="hsl(228.89999999999998, 24.7%, 90.7%)" stroke-width="1.5"></path><path d="M792.53 27.08L823.28 141.67" stroke="hsl(228.89999999999998, 24.7%, 90.7%)" stroke-width="1.5"></path><path d="M823.28 141.67L823.28 141.67" stroke="hsl(228.89999999999998, 24.7%, 90.7%)" stroke-width="1.5"></path><path d="M823.28 141.67L931.86 142.97" stroke="hsl(228.89999999999998, 24.7%, 90.7%)" stroke-width="1.5"></path><path d="M823.28 141.67L702.81 67.44" stroke="hsl(228.89999999999998, 24.7%, 90.7%)" stroke-width="1.5"></path><path d="M810.72 288.33L810.72 288.33" stroke="hsl(228.89999999999998, 24.7%, 90.7%)" stroke-width="1.5"></path><path d="M920.31 29.39L920.31 29.39" stroke="hsl(228.89999999999998, 24.7%, 90.7%)" stroke-width="1.5"></path><path d="M920.31 29.39L931.86 142.97" stroke="hsl(228.89999999999998, 24.7%, 90.7%)" stroke-width="1.5"></path><path d="M920.31 29.39L792.53 27.08" stroke="hsl(228.89999999999998, 24.7%, 90.7%)" stroke-width="1.5"></path><path d="M920.31 29.39L823.28 141.67" stroke="hsl(228.89999999999998, 24.7%, 90.7%)" stroke-width="1.5"></path><path d="M920.31 29.39L702.81 67.44" stroke="hsl(228.89999999999998, 24.7%, 90.7%)" stroke-width="1.5"></path><path d="M920.31 29.39L703.07 -27.78" stroke="hsl(228.89999999999998, 24.7%, 90.7%)" stroke-width="1.5"></path><path d="M931.86 142.97L931.86 142.97" stroke="hsl(228.89999999999998, 24.7%, 90.7%)" stroke-width="1.5"></path><path d="M931.86 142.97L933.98 288.9" stroke="hsl(228.89999999999998, 24.7%, 90.7%)" stroke-width="1.5"></path><path d="M933.98 288.9L933.98 288.9" stroke="hsl(228.89999999999998, 24.7%, 90.7%)" stroke-width="1.5"></path><path d="M933.98 288.9L938.77 398.18" stroke="hsl(228.89999999999998, 24.7%, 90.7%)" stroke-width="1.5"></path><path d="M933.98 288.9L810.72 288.33" stroke="hsl(228.89999999999998, 24.7%, 90.7%)" stroke-width="1.5"></path><path d="M938.77 398.18L938.77 398.18" stroke="hsl(228.89999999999998, 24.7%, 90.7%)" stroke-width="1.5"></path><path d="M938.77 398.18L810.72 288.33" stroke="hsl(228.89999999999998, 24.7%, 90.7%)" stroke-width="1.5"></path><path d="M938.77 398.18L710.69 390.08" stroke="hsl(228.89999999999998, 24.7%, 90.7%)" stroke-width="1.5"></path><path d="M938.77 398.18L931.86 142.97" stroke="hsl(228.89999999999998, 24.7%, 90.7%)" stroke-width="1.5"></path><path d="M938.77 398.18L691.25 282.79" stroke="hsl(228.89999999999998, 24.7%, 90.7%)" stroke-width="1.5"></path><circle r="25" cx="259.23" cy="183.73" fill="url(#SvgjsRadialGradient1781)"></circle><circle r="25" cx="273.74" cy="248.4" fill="url(#SvgjsRadialGradient1781)"></circle><circle r="25" cx="396.79" cy="159.16" fill="url(#SvgjsRadialGradient1781)"></circle><circle r="25" cx="368.9" cy="264.36" fill="url(#SvgjsRadialGradient1781)"></circle><circle r="25" cx="494.99" cy="287.24" fill="url(#SvgjsRadialGradient1781)"></circle><circle r="25" cx="583.79" cy="248.71" fill="url(#SvgjsRadialGradient1781)"></circle><circle r="25" cx="702.81" cy="67.44" fill="url(#SvgjsRadialGradient1781)"></circle><circle r="25" cx="710.69" cy="390.08" fill="url(#SvgjsRadialGradient1781)"></circle><circle r="25" cx="786.59" cy="360.36" fill="url(#SvgjsRadialGradient1781)"></circle><circle r="5" cx="-75.7" cy="293.28" fill="#cfd3e2"></circle><circle r="5" cx="40.22" cy="253.41" fill="#cfd3e2"></circle><circle r="5" cx="37.26" cy="357.03" fill="#cfd3e2"></circle><circle r="5" cx="152.88" cy="271.71" fill="#cfd3e2"></circle><circle r="5" cx="294.74" cy="381.74" fill="#cfd3e2"></circle><circle r="5" cx="380.31" cy="400.61" fill="#cfd3e2"></circle><circle r="5" cx="478.5" cy="387.6" fill="#cfd3e2"></circle><circle r="5" cx="601.87" cy="366.67" fill="#cfd3e2"></circle><circle r="5" cx="703.07" cy="-27.78" fill="#cfd3e2"></circle><circle r="5" cx="691.25" cy="282.79" fill="#cfd3e2"></circle><circle r="5" cx="801.8" cy="-46.78" fill="#cfd3e2"></circle><circle r="5" cx="792.53" cy="27.08" fill="#cfd3e2"></circle><circle r="5" cx="823.28" cy="141.67" fill="#cfd3e2"></circle><circle r="5" cx="810.72" cy="288.33" fill="#cfd3e2"></circle><circle r="5" cx="920.31" cy="29.39" fill="#cfd3e2"></circle><circle r="5" cx="931.86" cy="142.97" fill="#cfd3e2"></circle><circle r="5" cx="933.98" cy="288.9" fill="#cfd3e2"></circle><circle r="5" cx="938.77" cy="398.18" fill="#cfd3e2"></circle></g><defs><mask id="SvgjsMask1779"><rect width="860" height="240" fill="#ffffff"></rect></mask><linearGradient x1="18.02%" y1="-64.58%" x2="81.98%" y2="164.58%" gradientUnits="userSpaceOnUse" id="SvgjsLinearGradient1780"><stop stop-color="rgba(14, 42, 71, 1)" offset="0.27"></stop><stop stop-color="rgba(0, 75, 172, 1)" offset="0.27"></stop></linearGradient><radialGradient id="SvgjsRadialGradient1781"><stop stop-color="#ffffff" offset="0.1"></stop><stop stop-color="rgba(159, 166, 197, 1)" offset="0.2"></stop><stop stop-color="rgba(159, 166, 197, 0)" offset="1"></stop></radialGradient></defs></svg>